P2																																				
37 9																																				
255																																				
0	0	0	0	0	0	0	0	0	0	0	0	0	0	0	0	0	0	0	0	0	0	0	0	0	0	0	0	0	0	0	0	0	0	0	0	0
0	0	0	0	0	0	0	0	0	0	0	0	0	0	0	0	0	0	0	0	0	0	0	0	0	0	0	0	0	0	0	0	0	0	0	0	0
0	0	51	51	51	51	51	0	0	99	99	99	99	99	0	0	143	0	0	0	0	143	0	99	99	99	99	99	0	0	0	0	0	0	0	0	0
0	0	51	0	0	0	51	0	0	99	0	0	0	99	0	0	143	0	0	0	0	143	0	99	0	0	0	99	0	0	0	0	0	0	0	0	0
0	0	51	0	0	0	51	0	0	99	0	0	0	99	0	0	143	0	0	0	0	143	0	99	0	0	0	99	0	0	0	0	0	0	0	0	0
0	0	51	0	0	0	51	0	0	99	0	0	0	99	0	0	143	0	0	0	0	143	0	99	0	0	0	99	0	0	0	0	0	0	0	0	0
0	0	51	0	0	0	51	0	0	99	99	99	99	99	0	0	0	143	0	0	0	143	0	99	99	99	99	99	0	0	0	0	0	0	0	0	0
0	0	0	0	0	0	0	0	0	0	0	0	0	0	0	0	0	0	143	0	143	0	0	0	0	0	0	0	0	0	0	0	0	0	0	0	0
0	0	0	0	0	0	0	0	0	0	0	0	0	0	0	0	0	0	0	143	0	0	0	0	0	0	0	0	0	0	0	0	0	0	0	0	0

